<mxfile host="app.diagrams.net" modified="2020-06-09T10:30:33.825Z" agent="5.0 (Windows NT 10.0; Win64; x64) AppleWebKit/537.36 (KHTML, like Gecko) Chrome/83.0.4103.61 Safari/537.36" etag="wNAwYpyzhFnudBJTiKVU" version="13.1.12" type="github">
  <diagram id="_0t6NV2B4G4sZG4Yp8eq" name="Page-1">
    <mxGraphModel dx="1770" dy="1652" grid="1" gridSize="10" guides="1" tooltips="1" connect="1" arrows="1" fold="1" page="1" pageScale="1" pageWidth="850" pageHeight="1100" math="0" shadow="0">
      <root>
        <mxCell id="0" />
        <mxCell id="1" parent="0" />
        <mxCell id="r2TyA7Hs-DVxVZz_HnuN-7" style="edgeStyle=orthogonalEdgeStyle;rounded=0;orthogonalLoop=1;jettySize=auto;html=1;entryX=1;entryY=0;entryDx=0;entryDy=0;endArrow=ERzeroToMany;endFill=1;exitX=0;exitY=0.5;exitDx=0;exitDy=0;" parent="1" source="r2TyA7Hs-DVxVZz_HnuN-8" edge="1">
          <mxGeometry relative="1" as="geometry">
            <mxPoint x="462.4264068711923" y="211.71572875253833" as="targetPoint" />
          </mxGeometry>
        </mxCell>
        <mxCell id="r2TyA7Hs-DVxVZz_HnuN-15" style="edgeStyle=orthogonalEdgeStyle;rounded=0;orthogonalLoop=1;jettySize=auto;html=1;endArrow=ERoneToMany;endFill=0;" parent="1" source="r2TyA7Hs-DVxVZz_HnuN-8" target="r2TyA7Hs-DVxVZz_HnuN-10" edge="1">
          <mxGeometry relative="1" as="geometry" />
        </mxCell>
        <mxCell id="r2TyA7Hs-DVxVZz_HnuN-8" value="is" style="rhombus;whiteSpace=wrap;html=1;fillColor=#f8cecc;strokeColor=#b85450;" parent="1" vertex="1">
          <mxGeometry x="485" y="-30" width="80" height="80" as="geometry" />
        </mxCell>
        <mxCell id="r2TyA7Hs-DVxVZz_HnuN-9" value="&lt;span style=&quot;font-weight: 700&quot;&gt;Feeling_of_today&lt;/span&gt;" style="rounded=0;whiteSpace=wrap;html=1;fillColor=#d5e8d4;strokeColor=#82b366;" parent="1" vertex="1">
          <mxGeometry x="365" y="210" width="120" height="60" as="geometry" />
        </mxCell>
        <mxCell id="r2TyA7Hs-DVxVZz_HnuN-10" value="&lt;span style=&quot;font-weight: 700&quot;&gt;perfect_1&lt;br&gt;&lt;/span&gt;" style="rounded=0;whiteSpace=wrap;html=1;fillColor=#d5e8d4;strokeColor=#82b366;" parent="1" vertex="1">
          <mxGeometry x="720" y="-20" width="120" height="60" as="geometry" />
        </mxCell>
        <mxCell id="r2TyA7Hs-DVxVZz_HnuN-11" value="&lt;span style=&quot;font-weight: 700&quot;&gt;nice&lt;/span&gt;&lt;span style=&quot;font-weight: 700&quot;&gt;_2&lt;/span&gt;" style="rounded=0;whiteSpace=wrap;html=1;fillColor=#d5e8d4;strokeColor=#82b366;" parent="1" vertex="1">
          <mxGeometry x="-20" y="-50" width="120" height="60" as="geometry" />
        </mxCell>
        <mxCell id="r2TyA7Hs-DVxVZz_HnuN-12" value="&lt;span style=&quot;font-weight: 700&quot;&gt;soso&lt;/span&gt;&lt;span style=&quot;font-weight: 700&quot;&gt;_3&lt;/span&gt;" style="rounded=0;whiteSpace=wrap;html=1;fillColor=#d5e8d4;strokeColor=#82b366;" parent="1" vertex="1">
          <mxGeometry x="-60" y="380" width="120" height="60" as="geometry" />
        </mxCell>
        <mxCell id="r2TyA7Hs-DVxVZz_HnuN-13" value="&lt;span style=&quot;font-weight: 700&quot;&gt;upset&lt;/span&gt;&lt;span style=&quot;font-weight: 700&quot;&gt;_4&lt;/span&gt;" style="rounded=0;whiteSpace=wrap;html=1;fillColor=#d5e8d4;strokeColor=#82b366;" parent="1" vertex="1">
          <mxGeometry x="360" y="490" width="120" height="60" as="geometry" />
        </mxCell>
        <mxCell id="r2TyA7Hs-DVxVZz_HnuN-14" value="&lt;span style=&quot;font-weight: 700&quot;&gt;worse&lt;/span&gt;&lt;span style=&quot;font-weight: 700&quot;&gt;_5&lt;/span&gt;" style="rounded=0;whiteSpace=wrap;html=1;fillColor=#d5e8d4;strokeColor=#82b366;" parent="1" vertex="1">
          <mxGeometry x="770" y="210" width="120" height="60" as="geometry" />
        </mxCell>
        <mxCell id="r2TyA7Hs-DVxVZz_HnuN-22" style="edgeStyle=orthogonalEdgeStyle;rounded=0;orthogonalLoop=1;jettySize=auto;html=1;endArrow=ERzeroToMany;endFill=1;entryX=1;entryY=0.5;entryDx=0;entryDy=0;" parent="1" source="r2TyA7Hs-DVxVZz_HnuN-17" target="r2TyA7Hs-DVxVZz_HnuN-9" edge="1">
          <mxGeometry relative="1" as="geometry">
            <mxPoint x="490" y="239.99999999999977" as="targetPoint" />
          </mxGeometry>
        </mxCell>
        <mxCell id="r2TyA7Hs-DVxVZz_HnuN-23" style="edgeStyle=orthogonalEdgeStyle;rounded=0;orthogonalLoop=1;jettySize=auto;html=1;entryX=0;entryY=0.5;entryDx=0;entryDy=0;endArrow=ERoneToMany;endFill=0;" parent="1" source="r2TyA7Hs-DVxVZz_HnuN-17" target="r2TyA7Hs-DVxVZz_HnuN-14" edge="1">
          <mxGeometry relative="1" as="geometry" />
        </mxCell>
        <mxCell id="r2TyA7Hs-DVxVZz_HnuN-17" value="is" style="rhombus;whiteSpace=wrap;html=1;fillColor=#f8cecc;strokeColor=#b85450;" parent="1" vertex="1">
          <mxGeometry x="610" y="200" width="80" height="80" as="geometry" />
        </mxCell>
        <mxCell id="r2TyA7Hs-DVxVZz_HnuN-24" style="edgeStyle=orthogonalEdgeStyle;rounded=0;orthogonalLoop=1;jettySize=auto;html=1;entryX=0.5;entryY=1;entryDx=0;entryDy=0;endArrow=ERzeroToMany;endFill=1;" parent="1" source="r2TyA7Hs-DVxVZz_HnuN-18" target="r2TyA7Hs-DVxVZz_HnuN-9" edge="1">
          <mxGeometry relative="1" as="geometry" />
        </mxCell>
        <mxCell id="r2TyA7Hs-DVxVZz_HnuN-25" style="edgeStyle=orthogonalEdgeStyle;rounded=0;orthogonalLoop=1;jettySize=auto;html=1;entryX=0.5;entryY=0;entryDx=0;entryDy=0;endArrow=ERoneToMany;endFill=0;" parent="1" source="r2TyA7Hs-DVxVZz_HnuN-18" target="r2TyA7Hs-DVxVZz_HnuN-13" edge="1">
          <mxGeometry relative="1" as="geometry" />
        </mxCell>
        <mxCell id="r2TyA7Hs-DVxVZz_HnuN-18" value="is" style="rhombus;whiteSpace=wrap;html=1;fillColor=#f8cecc;strokeColor=#b85450;" parent="1" vertex="1">
          <mxGeometry x="385" y="350" width="80" height="80" as="geometry" />
        </mxCell>
        <mxCell id="r2TyA7Hs-DVxVZz_HnuN-26" style="edgeStyle=orthogonalEdgeStyle;rounded=0;orthogonalLoop=1;jettySize=auto;html=1;entryX=0;entryY=0.75;entryDx=0;entryDy=0;endArrow=ERzeroToMany;endFill=1;" parent="1" source="r2TyA7Hs-DVxVZz_HnuN-19" target="r2TyA7Hs-DVxVZz_HnuN-9" edge="1">
          <mxGeometry relative="1" as="geometry" />
        </mxCell>
        <mxCell id="r2TyA7Hs-DVxVZz_HnuN-27" style="edgeStyle=orthogonalEdgeStyle;rounded=0;orthogonalLoop=1;jettySize=auto;html=1;entryX=1;entryY=0.25;entryDx=0;entryDy=0;endArrow=ERoneToMany;endFill=0;" parent="1" source="r2TyA7Hs-DVxVZz_HnuN-19" target="r2TyA7Hs-DVxVZz_HnuN-12" edge="1">
          <mxGeometry relative="1" as="geometry" />
        </mxCell>
        <mxCell id="r2TyA7Hs-DVxVZz_HnuN-19" value="is" style="rhombus;whiteSpace=wrap;html=1;fillColor=#f8cecc;strokeColor=#b85450;" parent="1" vertex="1">
          <mxGeometry x="140" y="250" width="80" height="80" as="geometry" />
        </mxCell>
        <mxCell id="r2TyA7Hs-DVxVZz_HnuN-28" style="edgeStyle=orthogonalEdgeStyle;rounded=0;orthogonalLoop=1;jettySize=auto;html=1;entryX=0.147;entryY=0.011;entryDx=0;entryDy=0;entryPerimeter=0;endArrow=ERzeroToMany;endFill=1;" parent="1" source="r2TyA7Hs-DVxVZz_HnuN-20" target="r2TyA7Hs-DVxVZz_HnuN-9" edge="1">
          <mxGeometry relative="1" as="geometry" />
        </mxCell>
        <mxCell id="r2TyA7Hs-DVxVZz_HnuN-29" style="edgeStyle=orthogonalEdgeStyle;rounded=0;orthogonalLoop=1;jettySize=auto;html=1;entryX=1;entryY=0.75;entryDx=0;entryDy=0;endArrow=ERoneToMany;endFill=0;" parent="1" source="r2TyA7Hs-DVxVZz_HnuN-20" target="r2TyA7Hs-DVxVZz_HnuN-11" edge="1">
          <mxGeometry relative="1" as="geometry" />
        </mxCell>
        <mxCell id="r2TyA7Hs-DVxVZz_HnuN-20" value="is" style="rhombus;whiteSpace=wrap;html=1;fillColor=#f8cecc;strokeColor=#b85450;" parent="1" vertex="1">
          <mxGeometry x="200" y="40" width="80" height="80" as="geometry" />
        </mxCell>
        <mxCell id="r2TyA7Hs-DVxVZz_HnuN-44" style="edgeStyle=orthogonalEdgeStyle;rounded=0;orthogonalLoop=1;jettySize=auto;html=1;entryX=0.5;entryY=1;entryDx=0;entryDy=0;endArrow=none;endFill=0;" parent="1" source="r2TyA7Hs-DVxVZz_HnuN-30" target="r2TyA7Hs-DVxVZz_HnuN-14" edge="1">
          <mxGeometry relative="1" as="geometry" />
        </mxCell>
        <mxCell id="r2TyA7Hs-DVxVZz_HnuN-30" value="reason_worse" style="ellipse;whiteSpace=wrap;html=1;aspect=fixed;fontStyle=5;fillColor=#fff2cc;strokeColor=#d6b656;" parent="1" vertex="1">
          <mxGeometry x="790" y="350" width="80" height="80" as="geometry" />
        </mxCell>
        <mxCell id="r2TyA7Hs-DVxVZz_HnuN-43" style="edgeStyle=orthogonalEdgeStyle;rounded=0;orthogonalLoop=1;jettySize=auto;html=1;endArrow=none;endFill=0;" parent="1" source="r2TyA7Hs-DVxVZz_HnuN-35" target="r2TyA7Hs-DVxVZz_HnuN-13" edge="1">
          <mxGeometry relative="1" as="geometry" />
        </mxCell>
        <mxCell id="r2TyA7Hs-DVxVZz_HnuN-35" value="reason_upset" style="ellipse;whiteSpace=wrap;html=1;aspect=fixed;fontStyle=5;fillColor=#fff2cc;strokeColor=#d6b656;" parent="1" vertex="1">
          <mxGeometry x="370" y="630" width="80" height="80" as="geometry" />
        </mxCell>
        <mxCell id="r2TyA7Hs-DVxVZz_HnuN-41" style="edgeStyle=orthogonalEdgeStyle;rounded=0;orthogonalLoop=1;jettySize=auto;html=1;entryX=0.5;entryY=0;entryDx=0;entryDy=0;endArrow=none;endFill=0;" parent="1" source="r2TyA7Hs-DVxVZz_HnuN-36" target="r2TyA7Hs-DVxVZz_HnuN-10" edge="1">
          <mxGeometry relative="1" as="geometry" />
        </mxCell>
        <mxCell id="r2TyA7Hs-DVxVZz_HnuN-36" value="reason_perfect" style="ellipse;whiteSpace=wrap;html=1;aspect=fixed;fontStyle=5;fillColor=#fff2cc;strokeColor=#d6b656;" parent="1" vertex="1">
          <mxGeometry x="740" y="-190" width="80" height="80" as="geometry" />
        </mxCell>
        <mxCell id="r2TyA7Hs-DVxVZz_HnuN-40" style="edgeStyle=orthogonalEdgeStyle;rounded=0;orthogonalLoop=1;jettySize=auto;html=1;entryX=0.5;entryY=0;entryDx=0;entryDy=0;endArrow=none;endFill=0;" parent="1" source="r2TyA7Hs-DVxVZz_HnuN-37" target="r2TyA7Hs-DVxVZz_HnuN-11" edge="1">
          <mxGeometry relative="1" as="geometry" />
        </mxCell>
        <mxCell id="r2TyA7Hs-DVxVZz_HnuN-37" value="reason_nice&lt;br&gt;" style="ellipse;whiteSpace=wrap;html=1;aspect=fixed;fontStyle=5;fillColor=#fff2cc;strokeColor=#d6b656;" parent="1" vertex="1">
          <mxGeometry y="-160" width="80" height="80" as="geometry" />
        </mxCell>
        <mxCell id="r2TyA7Hs-DVxVZz_HnuN-39" style="edgeStyle=orthogonalEdgeStyle;rounded=0;orthogonalLoop=1;jettySize=auto;html=1;endArrow=none;endFill=0;" parent="1" source="r2TyA7Hs-DVxVZz_HnuN-38" target="r2TyA7Hs-DVxVZz_HnuN-12" edge="1">
          <mxGeometry relative="1" as="geometry" />
        </mxCell>
        <mxCell id="r2TyA7Hs-DVxVZz_HnuN-38" value="reason_soso&lt;br&gt;" style="ellipse;whiteSpace=wrap;html=1;aspect=fixed;fontStyle=5;fillColor=#fff2cc;strokeColor=#d6b656;" parent="1" vertex="1">
          <mxGeometry x="-110" y="230" width="80" height="80" as="geometry" />
        </mxCell>
      </root>
    </mxGraphModel>
  </diagram>
</mxfile>
